<svg width="17" height="17" viewBox="0 0 17 17" fill="none" xmlns="http://www.w3.org/2000/svg">
<g clip-path="url(#clip0_5316_1584)">
<path d="M11.1935 2.85483C10.0709 2.85483 8.99346 3.37741 8.29024 4.20322C7.58701 3.37741 6.50959 2.85483 5.38701 2.85483C3.39991 2.85483 1.83862 4.41612 1.83862 6.40321C1.83862 8.84192 4.03217 10.829 7.35475 13.8484L8.29024 14.6935L9.22572 13.8419C12.5483 10.829 14.7418 8.84192 14.7418 6.40321C14.7418 4.41612 13.1806 2.85483 11.1935 2.85483ZM8.35475 12.8871L8.29024 12.9516L8.22572 12.8871C5.15475 10.1064 3.12895 8.26773 3.12895 6.40321C3.12895 5.11289 4.09669 4.14515 5.38701 4.14515C6.38056 4.14515 7.3483 4.78386 7.69024 5.66773H8.89669C9.23217 4.78386 10.1999 4.14515 11.1935 4.14515C12.4838 4.14515 13.4515 5.11289 13.4515 6.40321C13.4515 8.26773 11.4257 10.1064 8.35475 12.8871Z" fill="#1D2734"/>
</g>
<defs>
<clipPath id="clip0_5316_1584">
<rect width="15.4839" height="15.4839" fill="white" transform="translate(0.54834 0.919342)"/>
</clipPath>
</defs>
</svg>
