<svg width="20" height="20" viewBox="0 0 20 20" fill="none" xmlns="http://www.w3.org/2000/svg">
<path d="M9.99999 18.9912C11.2294 18.9912 12.3868 18.756 13.472 18.2857C14.5574 17.8153 15.5147 17.1656 16.3441 16.3366C17.1735 15.5076 17.8235 14.5508 18.2941 13.466C18.7647 12.3812 19 11.2244 19 9.99561C19 8.7668 18.7647 7.61001 18.2941 6.52524C17.8235 5.44048 17.1735 4.48359 16.3441 3.65458C15.5147 2.82558 14.5559 2.1759 13.4676 1.70554C12.3794 1.23518 11.2206 1 9.99116 1C8.76176 1 7.60441 1.23518 6.51911 1.70554C5.43382 2.1759 4.47794 2.82558 3.65147 3.65458C2.825 4.48359 2.17647 5.44048 1.70588 6.52524C1.23529 7.61001 1 8.7668 1 9.99561C1 11.2244 1.23529 12.3812 1.70588 13.466C2.17647 14.5508 2.82647 15.5076 3.65588 16.3366C4.48529 17.1656 5.44264 17.8153 6.52793 18.2857C7.61322 18.756 8.77058 18.9912 9.99999 18.9912ZM9.99999 17.4919C8.95881 17.4919 7.98529 17.2979 7.07941 16.9099C6.17352 16.5219 5.37793 15.9854 4.69264 15.3004C4.00735 14.6154 3.47206 13.8202 3.08676 12.9148C2.70147 12.0094 2.50882 11.0363 2.50882 9.99561C2.50882 8.95494 2.70147 7.98188 3.08676 7.07645C3.47206 6.17101 4.00588 5.37433 4.68823 4.68643C5.37058 3.99853 6.1647 3.46203 7.07058 3.07692C7.97646 2.69182 8.94999 2.49927 9.99116 2.49927C11.0323 2.49927 12.0059 2.69182 12.9118 3.07692C13.8176 3.46203 14.6147 3.99853 15.3029 4.68643C15.9912 5.37433 16.5294 6.17101 16.9176 7.07645C17.3059 7.98188 17.5 8.95494 17.5 9.99561C17.5 11.0363 17.3073 12.0094 16.9221 12.9148C16.5367 13.8202 16.0014 14.6154 15.3161 15.3004C14.6308 15.9854 13.8338 16.5219 12.9249 16.9099C12.0162 17.2979 11.0412 17.4919 9.99999 17.4919ZM5.95882 14.4581H14.0235C14.2 14.4581 14.3308 14.4066 14.4161 14.3038C14.5014 14.2009 14.5441 14.0671 14.5441 13.9025C14.5441 13.6615 14.4514 13.3484 14.2661 12.9633C14.0809 12.5782 13.8015 12.1931 13.4279 11.808C13.0544 11.4228 12.5824 11.098 12.0118 10.8335C11.4411 10.5689 10.7676 10.4366 9.99116 10.4366C9.21469 10.4366 8.54117 10.5689 7.97058 10.8335C7.39999 11.098 6.92793 11.4228 6.5544 11.808C6.18087 12.1931 5.90146 12.5782 5.71617 12.9633C5.53088 13.3484 5.43823 13.6615 5.43823 13.9025C5.43823 14.0671 5.48088 14.2009 5.56617 14.3038C5.65146 14.4066 5.78234 14.4581 5.95882 14.4581ZM9.99116 9.7134C10.4088 9.71927 10.7897 9.61344 11.1338 9.3959C11.4779 9.17836 11.7514 8.88292 11.9544 8.50957C12.1573 8.13622 12.2588 7.71437 12.2588 7.24401C12.2588 6.80305 12.1573 6.39883 11.9544 6.03137C11.7514 5.6639 11.4779 5.36993 11.1338 5.14945C10.7897 4.92897 10.4088 4.81873 9.99116 4.81873C9.57352 4.81873 9.19263 4.92897 8.84852 5.14945C8.5044 5.36993 8.23087 5.6639 8.02793 6.03137C7.82499 6.39883 7.72352 6.80305 7.72352 7.24401C7.72352 7.71437 7.82499 8.13475 8.02793 8.50516C8.23087 8.87557 8.5044 9.16954 8.84852 9.38708C9.19263 9.60462 9.57352 9.7134 9.99116 9.7134Z" fill="black" fill-opacity="0.85"/>
</svg>
