<svg width="20" height="20" viewBox="0 0 20 20" fill="none" xmlns="http://www.w3.org/2000/svg">
<path d="M8.17512 15.0717C4.37236 15.0717 1.27856 11.9779 1.27856 8.17512C1.27856 4.37236 4.37236 1.27856 8.17512 1.27856C11.9779 1.27856 15.0717 4.37236 15.0717 8.17512C15.0717 11.9779 11.9779 15.0717 8.17512 15.0717ZM8.17512 2.65787C5.13305 2.65787 2.65787 5.13305 2.65787 8.17512C2.65787 11.2172 5.13305 13.6924 8.17512 13.6924C11.2172 13.6924 13.6924 11.2172 13.6924 8.17512C13.6924 5.13305 11.2179 2.65787 8.17512 2.65787Z" fill="black"/>
<path d="M18.0318 18.7214C17.9412 18.7215 17.8515 18.7037 17.7678 18.669C17.6841 18.6344 17.6081 18.5835 17.5442 18.5194L12.238 13.2131C12.1739 13.1491 12.1232 13.0731 12.0885 12.9894C12.0538 12.9058 12.036 12.8161 12.036 12.7256C12.036 12.635 12.0538 12.5453 12.0885 12.4617C12.1232 12.378 12.1739 12.302 12.238 12.238C12.302 12.1739 12.378 12.1232 12.4617 12.0885C12.5453 12.0538 12.635 12.036 12.7256 12.036C12.8161 12.036 12.9058 12.0538 12.9894 12.0885C13.0731 12.1232 13.1491 12.1739 13.2131 12.238L18.5194 17.5442C18.6161 17.6405 18.6821 17.7634 18.7089 17.8973C18.7357 18.0311 18.7221 18.17 18.6698 18.2961C18.6176 18.4222 18.529 18.53 18.4154 18.6057C18.3018 18.6815 18.1683 18.7217 18.0318 18.7214Z" fill="black"/>
</svg>
