<svg width="18" height="20" viewBox="0 0 18 20" fill="none" xmlns="http://www.w3.org/2000/svg">
<path d="M0 16.9336C0 17.9427 0.255534 18.6996 0.766602 19.2041C1.27767 19.7086 2.04427 19.9609 3.06641 19.9609H14.5605C15.4329 19.9609 16.1133 19.7086 16.6016 19.2041C17.0899 18.6996 17.334 17.9427 17.334 16.9336V6.82617C17.334 5.81706 17.0768 5.06022 16.5625 4.55566C16.0482 4.05111 15.2832 3.79883 14.2676 3.79883H12.7051C12.692 3.11524 12.5016 2.48535 12.1338 1.90918C11.7659 1.33301 11.2793 0.870767 10.6738 0.522461C10.0683 0.174154 9.39778 0 8.66211 0C7.92643 0 7.25586 0.174154 6.65039 0.522461C6.04492 0.870767 5.5599 1.33301 5.19531 1.90918C4.83073 2.48535 4.63867 3.11524 4.61914 3.79883H3.06641C2.04427 3.79883 1.27767 4.05111 0.766602 4.55566C0.255534 5.06022 0 5.81706 0 6.82617V16.9336ZM1.57227 16.8555V6.9043C1.57227 6.39649 1.70248 6.014 1.96289 5.75684C2.22331 5.49967 2.59766 5.37109 3.08594 5.37109H14.2383C14.72 5.37109 15.0944 5.49967 15.3613 5.75684C15.6282 6.014 15.7617 6.39649 15.7617 6.9043V16.8555C15.7617 17.3633 15.6413 17.7458 15.4004 18.0029C15.1595 18.2601 14.8698 18.3887 14.5312 18.3887H3.08594C2.59766 18.3887 2.22331 18.2601 1.96289 18.0029C1.70248 17.7458 1.57227 17.3633 1.57227 16.8555ZM6.19141 3.79883C6.20443 3.37565 6.32162 2.98828 6.54297 2.63672C6.76432 2.28516 7.05892 2.00521 7.42676 1.79688C7.7946 1.58855 8.20638 1.48438 8.66211 1.48438C9.12435 1.48438 9.53939 1.58855 9.90723 1.79688C10.2751 2.00521 10.568 2.28516 10.7861 2.63672C11.0042 2.98828 11.1198 3.37565 11.1328 3.79883H6.19141Z" fill="black" fill-opacity="0.85"/>
</svg>
